<svg id="final_svg" xmlns="http://www.w3.org/2000/svg" xmlns:xlink="http://www.w3.org/1999/xlink" viewBox="137.7069091796875 1.5599700212478638 582.1699829101562 421.5660095214844">
      <style type="text/css">.st0{fill:#395CF1;}</style>
    <g id="color_index_0" fill="#1ae26a" transform="translate(252.4561873976, 1.5599699999999928) scale(0.999)" opacity="1">
              <path d="M225.3300018,0c-30.8800049,0-55.9900055,25.1200008-55.9900055,56v26.9599991		c-11.6000061,4.2300034-19.9199982,15.3300018-19.9199982,28.3700027c0,16.6600037,13.5599976,30.2200012,30.2200012,30.2200012		s30.2200012-13.5599976,30.2200012-30.2200012c0-13.0400009-8.3199921-24.1500015-19.9199982-28.3700027V56		c0-19.5100021,15.8699951-35.3899994,35.4100037-35.3899994c19.5099945,0,35.3899841,15.8800011,35.3899841,35.3899994v128.1999969		c0,18.0099945-11.8000031,28.8999939-22.8399963,33.0800018c-11.0399933,4.1799927-27.1000061,3.8500061-39.0400085-9.6199951		L97.9100037,93.6699982C82.3399963,76.0999985,58.0999985,70.1200027,36.1399994,78.4400024		C14.1899996,86.7699966,0,107.3199997,0,130.8000031V259c0,30.8800049,25.1200008,56,56,56s55.9900055-25.1199951,55.9900055-56		v-27c11.5999985-4.2299957,19.9199982-15.3300018,19.9199982-28.3699951c0-16.6600037-13.5599976-30.2200012-30.2200012-30.2200012		s-30.2200012,13.5599976-30.2200012,30.2200012c0,13.0399933,8.3199997,24.1499939,19.9199982,28.3699951v27		c0,19.5100098-15.8700027,35.3900146-35.3800011,35.3900146S20.6199989,278.5100098,20.6199989,259V130.8000031		c0-18.0100021,11.7999992-28.9000015,22.8400002-33.0899963C54.5,93.5300064,70.5500031,93.8500061,82.5,107.3300095		l100.9599915,113.9899979c15.5700073,17.5800018,39.8099976,23.5599976,61.7700043,15.2299957		s36.1399994-28.8699951,36.1399994-52.3600006V56C281.3500061,25.1200008,256.230011,0,225.3300018,0z M179.6399994,120.9400024		c-5.3000031,0-9.6100006-4.3099976-9.6100006-9.6100006s4.3099976-9.6100006,9.6100006-9.6100006		S189.25,106.0299988,189.25,111.3300018S184.9400024,120.9400024,179.6399994,120.9400024z M101.6900024,194.0200043		c5.3000031,0,9.6100006,4.3099976,9.6100006,9.6100006s-4.3099976,9.6100006-9.6100006,9.6100006		s-9.6100006-4.3099976-9.6100006-9.6100006S96.3899994,194.0200043,101.6900024,194.0200043z"></path>
          </g>
    <g fill="#14023e" id="text_group" transform="translate(133.20691129962927, 312.02597)" opacity="1.0">
              <path d="M57.86 30.50L57.86 30.50Q58.87 28.59 61.01 27.92Q63.15 27.24 66.36 27.24Q69.56 27.24 71.53 27.80Q73.50 28.37 74.46 29.15Q75.42 29.94 75.87 31.52L75.87 31.52Q76.54 33.32 76.54 37.26L76.54 37.26L76.54 99.73Q76.54 102.43 76.37 103.67Q76.20 104.91 75.30 106.60L75.30 106.60Q73.73 109.64 66.52 109.64L66.52 109.64Q62.13 109.64 60.45 108.96Q58.76 108.28 57.63 106.82L57.63 106.82Q32.31 73.05 24.31 62.70L24.31 62.70L24.31 99.73Q24.31 102.43 24.14 103.67Q23.98 104.91 23.08 106.60L23.08 106.60Q21.50 109.64 14.30 109.64L14.30 109.64Q7.32 109.64 5.74 106.60L5.74 106.60Q4.84 104.91 4.67 103.56Q4.50 102.21 4.50 99.62L4.50 99.62L4.50 36.81Q4.50 32.53 5.57 30.56Q6.64 28.59 8.78 27.92Q10.92 27.24 14.30 27.24Q17.67 27.24 19.64 27.86Q21.61 28.48 22.40 29.27L22.40 29.27Q22.85 29.60 24.99 32.19L24.99 32.19Q48.74 64.50 56.73 74.85L56.73 74.85L56.73 36.81Q56.73 32.53 57.86 30.50ZM142.73 72.83L142.73 72.83Q142.73 79.81 139.30 83.13Q135.86 86.45 131.70 86.45L131.70 86.45L105.02 86.45Q105.02 89.60 108.73 91.74Q112.45 93.88 116.16 93.88L116.16 93.88Q122.69 93.88 126.41 92.53L126.41 92.53L127.65 92.08Q130.35 90.84 132.15 90.84L132.15 90.84Q135.75 90.84 138.34 95.90L138.34 95.90Q139.80 98.94 139.80 101.08L139.80 101.08Q139.80 111.10 115.83 111.10L115.83 111.10Q107.50 111.10 101.02 108.23Q94.55 105.36 90.95 100.63L90.95 100.63Q83.86 91.51 83.86 80.26L83.86 80.26Q83.86 66.07 93.03 57.58Q102.21 49.08 115.94 49.08L115.94 49.08Q131.58 49.08 138.90 60.11L138.90 60.11Q142.73 65.96 142.73 72.83ZM104.80 76.20L118.98 76.20Q123.26 76.20 123.26 72.60L123.26 72.60Q123.26 70.01 121.29 68.44Q119.32 66.86 115.66 66.86Q112.00 66.86 108.40 69.84Q104.80 72.83 104.80 76.20L104.80 76.20ZM176.38 109.41L176.38 109.41Q165.02 109.41 157.53 100.80Q150.05 92.19 150.05 79.81L150.05 79.81L150.05 60.11Q150.05 57.41 150.21 56.17Q150.38 54.93 151.17 53.24L151.17 53.24Q152.75 50.20 159.95 50.20L159.95 50.20Q167.83 50.20 169.18 54.48L169.18 54.48Q169.86 56.28 169.86 60.22L169.86 60.22L169.86 79.92Q169.86 84.53 172.50 87.12Q175.15 89.71 179.59 89.71Q184.04 89.71 186.80 87.01Q189.55 84.31 189.55 79.92L189.55 79.92L189.55 60.00Q189.55 57.41 189.72 56.11Q189.89 54.82 190.79 53.13L190.79 53.13Q192.26 50.20 199.46 50.20L199.46 50.20Q206.55 50.20 208.13 53.24L208.13 53.24Q208.92 54.93 209.08 56.22Q209.25 57.52 209.25 60.11L209.25 60.11L209.25 99.96Q209.25 102.43 209.08 103.73Q208.92 105.02 208.01 106.60L208.01 106.60Q206.33 109.52 199.35 109.52L199.35 109.52Q192.48 109.52 190.91 106.82L190.91 106.82Q189.78 104.91 189.78 102.21L189.78 102.21Q189.33 102.99 187.75 104.46Q186.18 105.92 184.71 106.93L184.71 106.93Q180.89 109.41 176.38 109.41ZM258.55 50.99L258.55 50.99Q260.69 51.67 262.10 53.30Q263.51 54.93 263.51 58.53Q263.51 62.13 261.37 66.41Q259.23 70.69 255.18 70.69L255.18 70.69Q253.15 70.69 251.29 69.79Q249.44 68.89 246.40 68.89Q243.36 68.89 240.71 71.03Q238.07 73.17 238.07 76.20L238.07 76.20L238.07 99.84Q238.07 102.43 237.90 103.73Q237.73 105.02 236.83 106.71L236.83 106.71Q235.14 109.64 228.05 109.64L228.05 109.64Q222.65 109.64 220.28 107.72L220.28 107.72Q218.48 106.15 218.26 102.88L218.26 102.88Q218.26 101.76 218.26 99.62L218.26 99.62L218.26 60.11Q218.26 57.52 218.43 56.22Q218.60 54.93 219.38 53.35L219.38 53.35Q220.96 50.32 228.16 50.32L228.16 50.32Q234.92 50.32 236.61 52.90L236.61 52.90Q237.84 54.71 237.84 56.62L237.84 56.62Q238.41 55.83 239.48 54.71Q240.54 53.58 244.03 51.67Q247.52 49.75 250.17 49.75Q252.81 49.75 254.62 50.03Q256.42 50.32 258.55 50.99ZM264.63 80.03L264.63 80.03Q264.63 66.52 274.09 57.74Q283.54 48.96 295.70 48.96Q307.86 48.96 317.20 57.69Q326.54 66.41 326.54 79.92L326.54 79.92Q326.54 89.26 321.70 96.52Q316.86 103.78 309.94 107.22Q303.02 110.65 295.59 110.65Q288.16 110.65 281.18 106.99Q274.20 103.33 269.42 96.18Q264.63 89.04 264.63 80.03ZM288.16 88.02L288.16 88.02Q291.76 90.84 295.48 90.84Q299.19 90.84 302.90 88.02Q306.62 85.21 306.62 79.69Q306.62 74.18 303.13 71.48Q299.64 68.78 295.59 68.78Q291.54 68.78 288.05 71.59Q284.56 74.40 284.56 79.86Q284.56 85.32 288.16 88.02ZM333.86 85.88L333.86 32.31Q333.86 29.72 334.03 28.42Q334.20 27.13 334.98 25.44L334.98 25.44Q336.56 22.40 343.76 22.40L343.76 22.40Q350.63 22.40 352.32 25.44L352.32 25.44Q353.22 27.13 353.39 28.48Q353.56 29.83 353.56 32.42L353.56 32.42L353.56 84.53Q353.56 88.59 354.23 89.66Q354.91 90.72 357.22 90.72Q359.52 90.72 360.31 90.89Q361.10 91.06 362.22 91.85L362.22 91.85Q364.48 93.31 364.48 99.84L364.48 99.84Q364.48 106.93 362.22 108.51L362.22 108.51Q359.30 110.54 348.27 109.19L348.27 109.19Q339.60 108.06 337.01 103.44L337.01 103.44Q333.86 97.93 333.86 85.88L333.86 85.88ZM370.67 99.73L370.67 60.22Q370.67 57.63 370.84 56.34Q371.00 55.04 371.79 53.35L371.79 53.35Q373.37 50.43 380.57 50.43L380.57 50.43Q385.98 50.43 388.23 52.34L388.23 52.34Q390.14 53.92 390.25 57.18L390.25 57.18Q390.37 58.31 390.37 60.45L390.37 60.45L390.37 99.84Q390.37 102.43 390.20 103.73Q390.03 105.02 389.13 106.71L389.13 106.71Q387.66 109.64 380.46 109.64L380.46 109.64Q373.37 109.64 371.79 106.60L371.79 106.60Q371.00 104.91 370.84 103.67Q370.67 102.43 370.67 99.73L370.67 99.73ZM389.24 39.28L389.24 39.28Q388.34 40.97 386.20 41.65Q384.06 42.32 380.52 42.32Q376.97 42.32 374.83 41.65Q372.69 40.97 371.85 39.28Q371.00 37.60 370.84 36.30Q370.67 35.01 370.67 32.42Q370.67 29.83 370.84 28.53Q371.00 27.24 371.79 25.66L371.79 25.66Q373.37 22.62 380.57 22.62L380.57 22.62Q387.66 22.62 389.13 25.66L389.13 25.66Q390.03 27.35 390.20 28.65Q390.37 29.94 390.37 32.53Q390.37 35.12 390.20 36.41Q390.03 37.71 389.24 39.28ZM398.69 52.00L398.69 52.00Q400.50 50.54 403.20 50.54L403.20 50.54L406.91 50.99L406.91 39.40Q406.91 36.81 407.08 35.57Q407.25 34.33 408.15 32.87L408.15 32.87Q409.61 30.05 416.82 30.05L416.82 30.05Q424.47 30.05 425.93 34.22L425.93 34.22Q426.50 36.24 426.50 39.96L426.50 39.96L426.50 50.99Q429.65 50.77 431.73 50.60Q433.81 50.43 435.16 50.43L435.16 50.43Q440.34 50.43 442.03 52.90Q443.72 55.38 443.72 60.45L443.72 60.45Q443.72 63.48 443.21 65.40Q442.71 67.31 441.58 68.38Q440.46 69.45 438.54 69.84Q436.63 70.24 433.81 70.24L433.81 70.24L426.50 69.79L426.50 85.32Q426.50 88.36 427.45 89.71Q428.41 91.06 431.11 91.06L431.11 91.06Q433.70 91.06 435.50 91.34Q437.30 91.63 438.49 92.58Q439.67 93.54 440.17 95.23Q440.68 96.92 440.68 99.84L440.68 99.84Q440.68 102.88 440.17 104.80Q439.67 106.71 438.49 107.78Q437.30 108.85 435.45 109.24Q433.59 109.64 430.77 109.64L430.77 109.64Q418.96 109.64 412.93 104.34Q406.91 99.05 406.91 86.45L406.91 86.45L406.91 69.79Q405.22 70.13 403.20 70.13L403.20 70.13Q401.73 70.13 400.44 69.79Q399.14 69.45 398.24 68.21L398.24 68.21Q396.56 66.30 396.56 61.68L396.56 61.68Q396.56 57.07 397.12 54.99Q397.68 52.90 398.69 52.00ZM449.91 99.73L449.91 60.22Q449.91 57.63 450.08 56.34Q450.25 55.04 451.04 53.35L451.04 53.35Q452.61 50.43 459.82 50.43L459.82 50.43Q465.22 50.43 467.47 52.34L467.47 52.34Q469.38 53.92 469.50 57.18L469.50 57.18Q469.61 58.31 469.61 60.45L469.61 60.45L469.61 99.84Q469.61 102.43 469.44 103.73Q469.27 105.02 468.37 106.71L468.37 106.71Q466.91 109.64 459.70 109.64L459.70 109.64Q452.61 109.64 451.04 106.60L451.04 106.60Q450.25 104.91 450.08 103.67Q449.91 102.43 449.91 99.73L449.91 99.73ZM468.48 39.28L468.48 39.28Q467.58 40.97 465.44 41.65Q463.31 42.32 459.76 42.32Q456.21 42.32 454.08 41.65Q451.94 40.97 451.09 39.28Q450.25 37.60 450.08 36.30Q449.91 35.01 449.91 32.42Q449.91 29.83 450.08 28.53Q450.25 27.24 451.04 25.66L451.04 25.66Q452.61 22.62 459.82 22.62L459.82 22.62Q466.91 22.62 468.37 25.66L468.37 25.66Q469.27 27.35 469.44 28.65Q469.61 29.94 469.61 32.53Q469.61 35.12 469.44 36.41Q469.27 37.71 468.48 39.28ZM478.61 99.73L478.61 32.31Q478.61 29.38 479.01 27.52Q479.40 25.66 480.47 24.48Q481.54 23.30 483.51 22.85Q485.48 22.40 488.52 22.40L488.52 22.40Q490.43 22.40 492.18 22.62Q493.92 22.85 495.22 23.64Q496.51 24.43 497.30 25.72Q498.09 27.01 498.20 29.27L498.20 29.27Q498.31 29.83 498.31 30.56Q498.31 31.29 498.31 32.42L498.31 32.42L498.31 68.10Q499.33 67.20 500.84 65.79Q502.36 64.39 504.50 62.36L504.50 62.36Q508.56 58.31 510.58 56.62L510.58 56.62L511.93 55.72Q513.85 54.25 515.37 53.47Q516.88 52.68 518.46 52.68L518.46 52.68Q521.50 52.68 525.21 57.18L525.21 57.18Q527.02 59.43 527.92 61.18Q528.82 62.92 528.82 64.39Q528.82 65.85 527.75 67.31Q526.68 68.78 524.65 70.46L524.65 70.46L513.51 79.92L528.48 92.30Q531.29 94.66 532.02 95.90Q532.76 97.14 532.76 98.27L532.76 98.27Q532.76 99.73 531.74 101.76Q530.73 103.78 529.15 105.70Q527.58 107.61 525.83 108.96Q524.09 110.31 522.51 110.31L522.51 110.31Q520.15 110.31 515.65 107.05L515.65 107.05L514.52 106.26Q513.28 105.13 511.26 103.28Q509.23 101.42 506.53 98.72L506.53 98.72Q503.83 96.13 501.80 94.21Q499.78 92.30 498.31 91.18L498.31 91.18L498.31 99.84Q498.31 102.66 497.92 104.57Q497.52 106.48 496.40 107.61Q495.27 108.73 493.36 109.19Q491.45 109.64 488.41 109.64L488.41 109.64Q485.37 109.64 483.45 109.13Q481.54 108.62 480.47 107.50Q479.40 106.37 479.01 104.46Q478.61 102.54 478.61 99.73L478.61 99.73ZM539.40 104.34L539.40 104.34Q537.26 102.99 537.26 100.07Q537.26 97.14 541.54 91.18L541.54 91.18Q542.77 89.26 545.53 89.26Q548.29 89.26 553.02 92.02Q557.74 94.78 561.57 94.78L561.57 94.78Q568.44 94.78 568.44 92.08L568.44 92.08Q568.44 89.94 560.90 88.92L560.90 88.92Q553.81 87.91 546.83 83.63L546.83 83.63Q543.56 81.61 541.42 77.27Q539.28 72.94 539.28 66.97L539.28 66.97Q539.28 49.19 563.71 49.19L563.71 49.19Q571.70 49.19 580.14 53.02L580.14 53.02Q584.08 54.82 584.08 57.52Q584.08 60.22 581.61 64.16Q579.13 68.10 576.54 68.10L576.54 68.10Q575.19 68.10 571.53 66.41Q567.88 64.72 563.60 64.72L563.60 64.72Q556.96 64.72 556.96 67.20L556.96 67.20Q556.96 70.58 564.61 71.59L564.61 71.59Q572.04 72.38 579.02 75.87L579.02 75.87Q582.28 77.44 584.48 81.33Q586.67 85.21 586.67 91.06Q586.67 96.92 584.48 101.02Q582.28 105.13 578.34 107.16L578.34 107.16Q571.14 110.65 560.28 110.65Q549.42 110.65 539.40 104.34Z"></path>
          </g>
  </svg>